PathFileType	4	(X/Y/Z)	 s02c0101.trc
DataRate	CameraRate	NumFrames	NumMarkers	Units	OrigDataRate	OrigDataStartFrame	OrigNumFrames
200	200	5	51	mm	200	1251	2000
Frame#	Time	racr			lacr			c7			jug			rlel			rdr			llel			ldr			s2			lic			ric			lasi			rasi			rpsi			lpsi			rgt			lgt			rth1			rth2			rth3			rth4			rlfc			rmfc			rsh1			rsh2			rsh3			rsh4			rlmal			rmmal			rtoe			rmt5			rmt1			lth1			lth2			lth4			lth3			llfc			lmfc			lsh1			lsh2			lsh3			lsh4			llmal			lmmal			lcal			ltoe			lmt1			lmt5			SBIKE			LBIKE			RBIKE			
		X1	Y1	Z1	X2	Y2	Z2	X3	Y3	Z3	X4	Y4	Z4	X5	Y5	Z5	X6	Y6	Z6	X7	Y7	Z7	X8	Y8	Z8	X9	Y9	Z9	X10	Y10	Z10	X11	Y11	Z11	X12	Y12	Z12	X13	Y13	Z13	X14	Y14	Z14	X15	Y15	Z15	X16	Y16	Z16	X17	Y17	Z17	X18	Y18	Z18	X19	Y19	Z19	X20	Y20	Z20	X21	Y21	Z21	X22	Y22	Z22	X23	Y23	Z23	X24	Y24	Z24	X25	Y25	Z25	X26	Y26	Z26	X27	Y27	Z27	X28	Y28	Z28	X29	Y29	Z29	X30	Y30	Z30	X31	Y31	Z31	X32	Y32	Z32	X33	Y33	Z33	X34	Y34	Z34	X35	Y35	Z35	X36	Y36	Z36	X37	Y37	Z37	X38	Y38	Z38	X39	Y39	Z39	X40	Y40	Z40	X41	Y41	Z41	X42	Y42	Z42	X43	Y43	Z43	X44	Y44	Z44	X45	Y45	Z45	X46	Y46	Z46	X47	Y47	Z47	X48	Y48	Z48	X49	Y49	Z49	X50	Y50	Z50	X51	Y51	Z51	
1251	6.2550	530.455927	1250.262475	-157.015643	500.179107	1258.680220	-509.044224	504.349063	1316.951416	-333.340453	457.720271	1184.507060	-333.520348	571.266509	996.893115	-60.678031	724.661385	847.869870	-116.238378	488.022904	976.298349	-568.073953	685.662120	860.669197	-504.693731	1.585331	1100.858548	-298.656844	122.942824	1123.961450	-448.412792	137.383439	1111.158170	-164.340660	171.883572	1097.811165	-428.759491	185.660276	1084.026610	-190.683568	23.735058	1146.505362	-250.202927	17.983034	1147.136478	-335.565481	115.078642	1014.626315	-129.427521	92.529598	1032.947352	-481.731811	205.270911	964.909404	-131.800647	284.028004	925.986004	-138.029923	336.920468	862.080173	-115.745082	302.908818	946.358358	-163.181794	410.203879	740.936162	-146.857652	391.958746	722.694073	-254.895954	351.979075	644.127511	-130.341945	304.954276	568.478687	-149.026259	233.260909	522.901386	-141.579699	315.818396	562.618571	-186.271018	142.548040	447.595786	-144.800488	163.860555	457.654454	-225.338163	233.451018	239.508306	-185.580673	153.090939	314.689663	-129.441537	179.993686	301.592797	-237.075725	220.343244	969.336860	-499.043978	302.257053	940.570034	-496.494950	321.169296	968.328967	-480.299176	359.340255	872.351415	-497.984747	440.099813	807.874894	-476.146887	452.639686	777.596390	-374.728771	430.557888	702.746093	-497.057038	433.366208	617.113735	-482.669179	390.691494	537.549645	-484.399164	453.095444	615.985323	-446.923482	349.037936	437.737509	-473.873912	367.447079	435.593362	-396.177613	282.782129	386.413100	-437.181095	570.451388	359.690274	-438.358496	487.160772	366.801904	-395.910625	463.860582	343.576394	-502.228965	-162.322436	860.642705	-310.254795	37.481068	86.331107	-514.257617	33.934311	83.142025	-114.147442	
1252	6.2600	529.087679	1250.518237	-156.719407	500.640646	1257.595819	-508.912697	503.551991	1316.961326	-333.436083	456.774279	1184.217640	-333.144467	571.182425	996.812835	-61.249634	724.553126	847.977410	-116.339276	489.025502	975.669168	-569.888623	685.665921	860.011757	-505.005228	1.770607	1099.010101	-299.579463	123.498399	1122.209883	-449.689374	137.285102	1110.099506	-165.258623	172.698596	1096.093953	-430.118948	185.798108	1083.433653	-191.760959	23.502379	1143.801059	-251.733645	17.951934	1145.004381	-336.586636	116.290509	1013.769391	-129.848496	92.945637	1030.282768	-482.293951	207.005145	965.891413	-132.372497	286.715198	929.006683	-139.005727	341.459904	866.788686	-116.572665	305.437902	950.508660	-163.631855	416.421458	746.586408	-147.611699	397.980936	728.356064	-255.651811	357.564595	650.711721	-131.077535	309.206660	575.975406	-149.662071	236.819102	531.290189	-141.874192	319.815218	569.903441	-186.922622	144.705858	458.141258	-144.987444	166.464016	467.695712	-225.646270	232.325379	248.503491	-185.568686	153.218473	325.043686	-129.613980	179.907130	311.467857	-237.094551	220.020075	964.737386	-499.972674	301.498367	934.581852	-497.445823	320.918211	962.211503	-481.685781	357.453209	865.492540	-498.751459	437.687296	800.260261	-476.827477	452.032984	769.795979	-374.924667	429.031388	695.263140	-497.790606	433.101729	609.825886	-483.527413	391.424774	529.484404	-484.857640	452.839588	608.794109	-447.849947	351.169242	428.510442	-474.503169	369.716993	425.772856	-396.605849	284.180750	378.468235	-438.183049	572.164882	347.142832	-438.045974	488.715597	355.676675	-395.951627	465.317578	332.809468	-502.261252	-162.321015	860.647423	-310.203718	37.473320	86.274832	-514.282801	33.948241	83.129903	-114.163998	
1253	6.2650	527.707038	1250.727860	-156.568548	501.187122	1256.515705	-508.903571	502.857782	1316.955967	-333.543016	455.941752	1184.214312	-332.807132	570.930617	996.888892	-61.606376	724.462047	848.217522	-116.478776	490.023643	975.059379	-571.768817	685.684223	859.519987	-505.450858	2.037766	1097.264174	-300.636713	124.116157	1120.446185	-450.962112	137.182780	1109.058564	-166.134613	173.593020	1094.479276	-431.558716	185.227845	1082.832041	-193.589796	23.405384	1141.525110	-252.595272	17.981034	1142.908022	-337.758919	117.714592	1013.341421	-129.855438	93.575315	1027.736524	-482.892441	208.597624	967.330053	-132.922155	289.204530	932.469226	-139.837175	345.687975	871.883382	-117.292509	307.890959	954.394109	-164.222625	422.563788	752.832487	-148.275045	404.138059	734.437283	-256.378025	362.946480	657.546937	-131.801475	313.380831	583.596816	-150.330994	240.338341	540.503597	-142.045958	323.839138	577.400306	-187.507904	147.090394	468.680943	-145.306060	169.297300	477.885515	-226.004053	231.898007	257.814645	-185.588185	153.846469	335.548803	-129.730576	180.303313	321.628007	-237.169070	219.913556	960.271664	-500.821485	300.853046	928.664169	-498.339516	320.852498	956.039914	-482.852591	355.579023	858.660162	-499.461405	435.051214	792.661767	-477.537087	449.919195	762.111923	-375.772275	427.320479	687.677795	-498.510808	432.057757	602.275952	-483.934613	392.011442	521.314863	-485.530507	452.423818	601.389325	-448.456417	352.874239	419.380756	-475.173588	371.380231	416.668774	-397.269478	285.986821	370.639780	-438.534096	573.274430	334.879421	-438.520052	489.693423	344.499969	-395.672287	466.147943	321.911745	-502.184910	-162.313621	860.759644	-310.266891	37.442900	86.162639	-514.305398	33.950836	83.111491	-114.189955	
1254	6.2700	526.347299	1251.035484	-156.285801	501.720596	1255.627177	-508.942257	502.265718	1316.997110	-333.612744	455.010444	1184.258446	-332.515544	570.583335	997.107271	-61.809019	724.414057	848.453069	-116.626990	490.989541	974.535477	-573.674945	685.631786	859.005975	-506.069198	2.235453	1095.792490	-302.121234	124.864609	1118.816885	-452.315660	137.092901	1108.358955	-166.650754	174.611258	1092.920250	-432.998209	185.368340	1082.653116	-194.651757	23.096873	1139.475455	-253.487089	18.072587	1140.959818	-339.404188	118.896968	1013.146772	-129.991075	94.449214	1025.362143	-483.508805	210.045512	969.110093	-133.521504	291.515668	936.308282	-140.473303	349.566151	877.207584	-117.997639	309.368802	958.615792	-165.119425	428.299661	759.587431	-149.232756	410.175070	740.786320	-257.270313	368.428638	664.512409	-132.448919	318.762673	591.680803	-150.067941	243.064879	550.022885	-142.845765	327.857857	585.060674	-188.139581	149.693761	479.283764	-145.637101	172.029642	488.231079	-226.397937	232.195550	267.475335	-185.696683	155.076897	346.115193	-129.990544	181.330205	331.781638	-237.319505	220.056057	955.999684	-501.664735	300.400231	922.926481	-499.129913	320.908156	949.941249	-483.946918	353.825068	851.750634	-500.110724	432.444756	784.975926	-478.029450	451.184093	756.353456	-374.873376	425.337458	679.869632	-499.178695	431.257778	594.643822	-484.699654	392.248570	513.097130	-486.222949	451.323664	594.039563	-448.996804	354.037682	410.435463	-475.754037	373.084998	408.212719	-398.726628	286.993471	363.173751	-439.245070	573.473495	321.483339	-438.231058	490.105223	333.281618	-395.866596	466.354030	311.070620	-502.312993	-162.372812	860.626902	-310.396294	37.412784	86.069595	-514.332937	33.976474	83.069689	-114.215614	
1255	6.2750	525.118082	1251.415963	-156.113473	502.323653	1254.792336	-508.801745	501.749915	1317.127919	-333.680699	454.046044	1184.329518	-332.257625	570.181706	997.508277	-61.845469	724.440605	848.707854	-116.843795	491.981138	974.101276	-575.524942	685.602784	858.540569	-506.583506	2.564660	1094.508961	-303.633889	125.658054	1117.386099	-453.726052	136.799769	1107.926918	-168.058610	175.726439	1091.572515	-434.457217	185.483811	1082.745454	-195.639227	22.833101	1137.543139	-254.702366	18.201041	1139.186165	-340.827538	120.017189	1013.235473	-129.864771	95.527558	1023.067082	-484.201433	211.330289	971.282719	-134.110667	293.664481	940.516604	-140.994904	353.154723	882.880337	-118.468184	311.132311	963.113563	-165.219209	433.966638	766.943105	-150.016331	414.482434	745.611122	-258.542203	373.163132	672.167346	-133.332830	322.800694	599.843106	-150.758860	246.567244	559.402277	-143.590353	331.903061	593.436581	-188.321811	152.405592	489.798184	-145.980711	173.785142	499.468038	-226.323268	233.423139	277.503524	-185.739166	156.870221	356.655762	-130.137240	182.979277	342.034557	-237.505775	220.386871	951.795663	-502.476462	300.012872	917.080800	-499.859193	321.079893	943.840723	-484.860217	352.047990	844.938627	-500.650569	429.292992	777.149505	-478.523678	447.900808	748.124337	-375.961561	422.948111	671.764927	-499.838173	429.986755	586.715029	-485.328426	391.960693	504.717579	-487.058130	449.753818	586.354736	-449.428628	354.831602	401.703111	-476.946692	372.507975	398.683817	-398.773202	287.420130	355.924367	-440.109212	573.162520	308.540431	-438.013296	489.872700	322.337826	-396.143448	465.996406	300.283507	-502.447417	-162.367631	860.570003	-310.679906	37.413293	86.006452	-514.354305	33.804904	83.300862	-114.189494	
